<svg xmlns="http://www.w3.org/2000/svg" width="118" height="40" viewBox="0 0 118 40"><g fill="none" fill-rule="evenodd"><g transform="translate(35.988 27.842)"><path fill="#000" d="M74.4039493,3.96945413 C75.1331059,2.90119759 76.4002348,2.23960271 77.8668714,2.23960271 C80.1836977,2.23960271 82.0118285,3.86512068 82.0118285,6.16307457 C82.0118285,8.45366547 80.1800748,10.0529408 77.8779467,10.0529408 C76.7877623,10.0529408 75.803049,9.69429599 75.0683893,9.07341641 L75.0683893,9.91857182 L72.4516593,9.91857182 C72.1226343,9.91857182 71.7982717,9.8523202 71.518065,9.69433438 C71.0675101,9.93726723 70.5604093,10.0529408 70.0375174,10.0529408 C69.3700659,10.0529408 68.7272874,9.87883159 68.1715518,9.51450526 C68.0822005,9.45591607 67.9965258,9.39334211 67.9145428,9.32711352 L67.9145428,9.91857182 L65.3421062,9.91857182 C65.0159627,9.91857182 64.6987238,9.84616261 64.4250981,9.68891386 C63.9881943,9.93691405 63.4890732,10.0529408 62.9722654,10.0529408 C62.2713588,10.0529408 61.5869391,9.82809678 61.0554483,9.37680415 C60.9657684,9.30064819 60.8825701,9.21993162 60.8058075,9.13513814 C60.7102575,9.20950518 60.611482,9.27991049 60.5103217,9.34598552 C59.8020546,9.80867966 58.9865277,10.0529408 58.1328986,10.0529408 C57.4108963,10.0529408 56.7002139,9.90372298 56.0629462,9.5668908 C55.4841963,9.26097706 55.0029838,8.81879797 54.6546592,8.27418185 C54.2459212,7.63511359 54.0433026,6.89207275 54.0433026,6.14067847 C54.0433026,6.08076102 54.044602,6.02086661 54.0472236,5.96101826 C53.9849071,5.97291883 53.9243714,5.99155282 53.871441,6.01908536 C53.7459288,6.08437726 53.6843766,6.19747874 53.6431482,6.32658072 C53.5931604,6.48315382 53.5847068,6.68357477 53.5847068,6.8461519 L53.5847068,9.91857182 L49.8462328,9.91857182 L49.8462328,9.11493788 C49.6672705,9.25183282 49.4756125,9.37497684 49.2774041,9.48324899 C48.5944442,9.85636639 47.831267,10.0529408 47.0477507,10.0529408 C46.269493,10.0529408 45.5100458,9.8738871 44.8445052,9.47365176 C44.6725977,9.37027036 44.5108406,9.25435881 44.3600212,9.12715324 L44.3600212,9.91857182 L41.6768243,9.91857182 C41.2171738,9.91857182 40.7750495,9.80428796 40.4374639,9.48411658 C40.3615497,9.41212197 40.2962446,9.33482202 40.2404555,9.25320714 L40.2404555,9.91857182 L33.046871,9.91857182 L33.046871,6.0553629 L32.5948103,5.95747112 C32.5330364,5.94630762 32.4587885,5.94325954 32.3967777,5.94325954 C32.2739943,5.94325954 32.1318425,5.96210851 32.0223203,6.01908536 C31.8967853,6.08437726 31.8352484,6.19747874 31.7940199,6.32658072 C31.7440398,6.48315382 31.7355862,6.68357477 31.7355862,6.8461519 L31.7355862,9.91857182 L27.9971122,9.91857182 L27.9971122,9.11493788 C27.8181423,9.25183282 27.6264613,9.37497684 27.4282835,9.48324899 C26.745316,9.85636639 25.9821464,10.0529408 25.1986224,10.0529408 C24.4203724,10.0529408 23.6609252,9.8738871 22.9953769,9.47365176 C22.5305747,9.19414193 22.1399057,8.8228672 21.8392453,8.38500302 C21.5420856,8.87655796 21.1332254,9.29161911 20.6264074,9.58627721 C20.0878924,9.89936967 19.4789587,10.0529408 18.8531944,10.0529408 C18.6720155,10.0529408 18.4915856,10.0390977 18.313808,10.0112197 L18.313808,12.1581745 L14.575334,12.1581745 L14.575334,9.91857182 L12.7070677,9.91857182 C12.3351633,9.91857182 11.9712615,9.83242705 11.671075,9.64166476 C11.2091237,9.91005715 10.6669245,10.0529408 10.1157597,10.0529408 C9.5169841,10.0529408 8.92151049,9.93239183 8.41250655,9.61298055 C7.9961405,9.35170547 7.68462648,8.98596642 7.48080783,8.54716555 C7.43726344,8.45342745 7.39919171,8.35769313 7.3661264,8.2604079 C7.06683417,8.81072862 6.61478877,9.25644717 6.0593283,9.56375058 C5.44198695,9.90531228 4.74221163,10.0529408 4.03608465,10.0529408 C3.07711432,10.0529408 2.16638907,9.76890104 1.37871476,9.23886504 C1.13312498,9.07363139 0.90064362,8.88531064 0.690870771,8.67827144 C0.597078727,8.58568501 0.501184751,8.4844841 0.420241247,8.38062668 L0,7.84145411 L1.60328521,5.79443332 C1.48338335,5.69860687 1.36877071,5.59653837 1.26102183,5.48748309 C0.661711236,4.88092258 0.356235496,4.13977815 0.356235496,3.29638863 C0.356235496,2.62031344 0.560917847,1.97430447 0.970626502,1.42722377 C1.69304919,0.462563617 2.8911277,0 4.09146102,0 C4.54793193,0 5.018803,0.0733382188 5.45338325,0.208927932 C6.11507155,0.415406651 6.74289964,0.784431792 7.13568583,1.35631941 C7.34799628,1.66542711 7.47461669,2.01008295 7.51419416,2.37399469 L9.19661139,2.37399469 C9.65626196,2.37399469 10.0983786,2.48827855 10.4359642,2.80841922 C10.7474782,3.10386813 10.8803815,3.48862506 10.9098238,3.89537116 L10.9098238,2.37399469 L16.472263,2.37399469 C16.8019606,2.37399469 17.1297245,2.43527878 17.4138599,2.59128373 C17.882652,2.35068493 18.4069503,2.23960271 18.9417889,2.23960271 C19.6092174,2.23960271 20.2519883,2.41371188 20.8077316,2.77806125 C21.2313512,3.05578983 21.5722923,3.42301069 21.8285828,3.84637921 C22.4989617,2.86194107 23.6281656,2.23960271 25.0325086,2.23960271 C25.8809402,2.23960271 26.6890683,2.48205186 27.3326723,3.0155659 L27.3326723,2.37399469 L29.938327,2.37399469 C30.3552663,2.37399469 30.7607788,2.46875393 31.0858598,2.72334934 C31.5148298,2.44091428 32.0205012,2.27320838 32.5628686,2.27320838 C32.6956878,2.27320838 32.8385351,2.28768101 32.9690689,2.31405421 L33.2660299,2.37399469 L35.0102516,2.37399469 C35.3806426,2.37399469 35.7423126,2.45944078 36.0406188,2.65004183 C36.475329,2.37884705 36.9667608,2.23960271 37.4908299,2.23960271 C38.1331727,2.23960271 38.7120526,2.42724782 39.1695324,2.78330518 C39.2267355,2.7445861 39.2850164,2.70782486 39.3441609,2.67313662 C39.8255646,2.39099331 40.3726861,2.23960271 40.9348575,2.23960271 C41.4412856,2.23960271 41.9410258,2.34210884 42.3816749,2.59245843 C42.8279571,2.84600966 43.1604217,3.22121542 43.3765003,3.67683832 C43.4383583,3.80729159 43.4896225,3.94186016 43.5316306,4.07920809 C44.1764652,2.96106897 45.3695602,2.23960271 46.8816292,2.23960271 C47.7300609,2.23960271 48.5381965,2.48205186 49.1817929,3.0155659 L49.1817929,2.37399469 L51.7874476,2.37399469 C52.2043946,2.37399469 52.6098994,2.46875393 52.9350033,2.72334934 C53.3639504,2.44091428 53.8696218,2.27320838 54.4120197,2.27320838 C54.5448084,2.27320838 54.6876557,2.28768101 54.8182201,2.31405421 L55.5448161,2.46069994 L55.5448161,3.05276478 C55.6218385,2.99491266 55.7014903,2.93978615 55.7836644,2.88753113 C56.498543,2.43282189 57.3296241,2.23960271 58.1771844,2.23960271 C58.5933976,2.23960271 59.0291473,2.30190795 59.426573,2.4222419 C59.9553198,2.58231608 60.4544256,2.85880085 60.7917895,3.29655754 C60.8069311,3.31618964 60.8216217,3.33602137 60.8358995,3.35604503 C60.9211386,3.22693537 61.0233996,3.10599488 61.1430186,2.99487427 C61.8095452,2.37571451 62.8102408,2.23960271 63.6920817,2.23960271 C64.307902,2.23960271 64.9379849,2.32411211 65.504169,2.57056139 C66.0099474,2.7907296 66.4323059,3.12728538 66.7350071,3.5813804 C66.8472579,3.74976962 66.938306,3.92699597 67.0108418,4.11046436 C67.2986766,3.54312199 67.7255446,3.060051 68.2794229,2.72493097 C68.8003735,2.40970408 69.3909095,2.25141882 70.0010278,2.24025532 L70.0010278,0.134368946 L72.6842094,0.134368946 C73.1438829,0.134368946 73.5859996,0.248668157 73.9235852,0.568816508 C74.2819685,0.908704448 74.4039493,1.3668303 74.4039493,1.84062652 L74.4039493,3.96945413 Z M57.7939754,6.16722826 C57.7979576,6.25299681 57.8136036,6.34793264 57.8558563,6.41986583 C57.8847789,6.46911115 57.9246697,6.50360745 57.9751467,6.53120909 C58.07607,6.58639702 58.2063516,6.60683529 58.321163,6.60683529 C58.5061712,6.60683529 58.7340131,6.49157636 58.8858719,6.39644858 C58.9752461,6.3404468 59.0612801,6.27800336 59.1424453,6.21119126 C59.1597346,6.19697968 59.177345,6.18226904 59.1946343,6.16722826 L57.7939754,6.16722826 Z M18.2584545,6.185463 C18.2584545,6.29722086 18.2752471,6.41755481 18.3164526,6.52232589 C18.3331763,6.56485315 18.3650722,6.63003756 18.4023796,6.65989648 C18.4195848,6.67367042 18.4443036,6.6740236 18.4656057,6.6740236 C18.4771931,6.6740236 18.4888951,6.67273373 18.4999704,6.66920963 C18.5345261,6.65826111 18.562585,6.62396443 18.580998,6.59532629 C18.6533885,6.48265477 18.6727339,6.31483371 18.6727339,6.185463 C18.6727339,6.04863716 18.6546879,5.88534599 18.5933038,5.76015968 C18.5788349,5.73064627 18.5481543,5.67793826 18.5168011,5.6610932 C18.5025233,5.65340774 18.4812899,5.65212554 18.4656057,5.65212554 C18.4523444,5.65212554 18.4387162,5.65320811 18.4257836,5.65617174 C18.3946445,5.66328905 18.377401,5.68143933 18.3597218,5.70696798 C18.2763477,5.82736335 18.2584545,6.0464797 18.2584545,6.185463 Z M70.5137006,6.6740236 C70.5269542,6.6740236 70.5405824,6.67293336 70.5534997,6.66996973 C70.5846542,6.66285242 70.6019053,6.64470214 70.6195845,6.61917349 C70.7029509,6.49877812 70.7208517,6.27966177 70.7208517,6.14067847 C70.7208517,6.02892061 70.7040592,5.90858665 70.6628308,5.80381558 C70.6460994,5.76128832 70.6142265,5.69610391 70.5768961,5.66624499 C70.5596985,5.65247105 70.5349951,5.65212554 70.5137006,5.65212554 C70.5020826,5.65212554 70.4904035,5.65340774 70.4793359,5.65693184 C70.4447801,5.66788036 70.4166983,5.70217704 70.3983007,5.73082286 C70.3258948,5.84349438 70.3065494,6.01131544 70.3065494,6.14067847 C70.3065494,6.27750431 70.3246184,6.44080315 70.3859948,6.56598179 C70.4004714,6.5954952 70.431129,6.64821088 70.4624975,6.66505595 C70.4767601,6.67273373 70.4979934,6.6740236 70.5137006,6.6740236 Z M77.4936065,6.16307457 C77.4936065,6.40695947 77.5897145,6.66283707 77.8779467,6.66283707 C78.1661713,6.66283707 78.262287,6.40695947 78.262287,6.16307457 C78.262287,5.97964457 78.2085081,5.74385974 78.0193571,5.65886664 C77.9748114,5.63885065 77.9269103,5.62972944 77.8779467,5.62972944 C77.8289984,5.62972944 77.7810973,5.63885065 77.7365516,5.65886664 C77.5474007,5.74385974 77.4936065,5.97964457 77.4936065,6.16307457 L77.4936065,6.16307457 Z"/><path fill="#F4D223" d="M1.14575951,7.84278237 C1.14575951,7.84278237 2.17564521,9.16414482 4.03608465,9.16414482 C5.81900482,9.16414482 6.84889053,8.02194352 6.84889053,6.68938685 C6.84889053,4.05784081 3.26090729,4.19222511 3.26090729,3.21799075 C3.26090729,2.84844352 3.67063887,2.68049194 4.06931811,2.68049194 C4.43474096,2.68049194 4.84449548,2.85965309 4.84449548,3.15081012 L4.84449548,3.49793821 L6.61634802,3.49793821 L6.61634802,2.62449784 C6.61634802,1.40391401 5.14348963,0.888811303 4.09146102,0.888811303 C2.51894809,0.888811303 1.26756458,1.85183609 1.26756458,3.29638863 C1.26756458,5.80472923 4.85557075,5.90551554 4.85557075,6.79015013 C4.85557075,7.2380722 4.4569068,7.38365072 4.05822755,7.38365072 C3.06157531,7.38365072 2.24208921,6.44302203 2.24208921,6.44302203 L1.14575951,7.84278237 Z M8.08919878,7.00291695 C8.08919878,8.626646 8.98618121,9.16414482 10.1157597,9.16414482 C10.8798618,9.16414482 11.5775199,8.78341105 11.8876046,8.16752203 L11.9097475,8.16752203 C11.9097475,8.16752203 11.8986798,8.24591224 11.8986798,8.30189098 L11.8986798,8.38028118 C11.8986798,8.77220148 12.1865987,9.02977587 12.7070677,9.02977587 L14.4014163,9.02977587 L14.4014163,7.40604682 L13.9805942,7.40604682 C13.8255709,7.40604682 13.7369764,7.31647009 13.7369764,7.15970504 L13.7369764,3.26278296 L11.8211529,3.26278296 L11.8211529,5.8159388 C11.8211529,6.67817729 11.4335642,7.40604682 10.6140858,7.40604682 C10.2154218,7.40604682 10.0049993,7.18209346 10.0049993,6.64459465 L10.0049993,4.08022923 C10.0049993,3.50914778 9.76138151,3.26278296 9.19661139,3.26278296 L7.42475885,3.26278296 L7.42475885,4.88649665 L7.84556571,4.88649665 C8.00060424,4.88649665 8.08919878,4.97607339 8.08919878,5.13286147 L8.08919878,7.00291695 Z M15.4866631,11.2693863 L17.4024789,11.2693863 L17.4024789,9.16414482 C17.4024789,8.87299547 17.380336,8.67143821 17.380336,8.67143821 L17.4024789,8.67143821 C17.4024789,8.67143821 17.9229708,9.16414482 18.8531944,9.16414482 C20.3703309,9.16414482 21.5109541,7.97715131 21.5109541,6.15188804 C21.5109541,4.36017669 20.4921436,3.12841401 18.9417889,3.12841401 C17.7347141,3.12841401 17.2363651,3.86747009 17.2363651,3.86747009 L17.2142222,3.86747009 C17.2142222,3.86747009 17.2142222,3.83388745 17.2142222,3.76669914 C17.2142222,3.52033432 17.0259655,3.26278296 16.472263,3.26278296 L14.8222232,3.26278296 L14.8222232,4.88649665 L15.2430453,4.88649665 C15.3980915,4.88649665 15.4866631,4.97607339 15.4866631,5.13286147 L15.4866631,11.2693863 Z M17.3471025,6.185463 C17.3471025,5.18884022 17.8897374,4.76331424 18.4656057,4.76331424 C19.1300456,4.76331424 19.5840859,5.32322452 19.5840859,6.185463 C19.5840859,7.07012062 19.063594,7.56283491 18.4656057,7.56283491 C17.7125483,7.56283491 17.3471025,6.87975758 17.3471025,6.185463 Z M22.0646566,6.14067847 C22.0646566,7.67480775 23.1609939,9.16414482 25.1986224,9.16414482 C26.7157666,9.16414482 27.6349149,8.24591224 27.6349149,8.24591224 L26.8708052,6.94693821 C26.8708052,6.94693821 26.1731547,7.55162534 25.3536686,7.55162534 C24.7445821,7.55162534 24.1687367,7.22688567 24.0247658,6.49901613 L27.6238396,6.49901613 C27.6238396,6.49901613 27.6681484,6.1070728 27.6681484,5.91670208 C27.6681484,4.31539216 26.7157666,3.12841401 25.0325086,3.12841401 C23.1942121,3.12841401 22.0646566,4.44978414 22.0646566,6.14067847 Z M24.0801422,5.32322452 C24.2019549,4.89770622 24.4788061,4.58415309 25.0325086,4.58415309 C25.4311879,4.58415309 25.7080391,4.96488685 25.7080391,5.32322452 L24.0801422,5.32322452 Z M28.9084337,9.02977587 L30.8242571,9.02977587 L30.8242571,6.8461519 C30.8242571,6.53259877 30.8574753,6.27504742 30.9239269,6.06228059 C31.2007782,5.20004211 31.9427374,5.05446359 32.3967777,5.05446359 C32.6293202,5.05446359 32.7843664,5.08806926 32.7843664,5.08806926 L32.7843664,3.18439276 C32.7843664,3.18439276 32.673606,3.16199665 32.5628686,3.16199665 C31.7101719,3.16199665 30.9903556,3.81149134 30.7467379,4.59533962 L30.724595,4.59533962 C30.724595,4.59533962 30.7467379,4.48336678 30.7467379,4.30420563 L30.7467379,4.00186207 C30.7467379,3.47554979 30.4588113,3.26278296 29.938327,3.26278296 L28.2439937,3.26278296 L28.2439937,4.88649665 L28.6648006,4.88649665 C28.8198468,4.88649665 28.9084337,4.97607339 28.9084337,5.13286147 L28.9084337,9.02977587 Z M33.9582,9.02977587 L35.8740235,9.02977587 L35.8740235,6.64459465 C35.8740235,6.39822983 35.9072417,6.16307457 35.9515428,5.95030775 C36.0844231,5.33441873 36.4055831,4.88649665 36.9703608,4.88649665 C37.3358066,4.88649665 37.4133259,5.18884022 37.4133259,5.61436619 L37.4133259,9.02977587 L39.3291264,9.02977587 L39.3291264,6.64459465 C39.3291264,6.40943939 39.3512693,6.19667257 39.395578,5.99509996 C39.5173831,5.35680716 39.8496184,4.88649665 40.4254637,4.88649665 C40.7909095,4.88649665 40.8684288,5.18884022 40.8684288,5.61436619 L40.8684288,8.21230656 C40.8684288,8.78341105 41.1120466,9.02977587 41.6768243,9.02977587 L43.4486922,9.02977587 L43.4486922,7.40604682 L43.02787,7.40604682 C42.8728238,7.40604682 42.7842293,7.31647009 42.7842293,7.15970504 L42.7842293,5.28962652 C42.7842293,3.69949547 41.9758414,3.12841401 40.9348575,3.12841401 C40.0821609,3.12841401 39.4066533,3.6211283 39.1076515,4.10262534 L39.0855086,4.10262534 C38.7864915,3.45315368 38.2106462,3.12841401 37.4908299,3.12841401 C36.5938398,3.12841401 36.0844231,3.72189157 35.8186471,4.12502144 L35.7965042,4.12502144 C35.7965042,4.12502144 35.8075719,4.04665427 35.8075719,3.9906525 L35.8075719,3.91226229 C35.8075719,3.52033432 35.5307206,3.26278296 35.0102516,3.26278296 L33.2937601,3.26278296 L33.2937601,4.88649665 L33.7145899,4.88649665 C33.8696055,4.88649665 33.9582,4.97607339 33.9582,5.13286147 L33.9582,9.02977587 Z M43.9138078,6.14067847 C43.9138078,7.67480775 45.0101222,9.16414482 47.0477507,9.16414482 C48.5649102,9.16414482 49.4840584,8.24591224 49.4840584,8.24591224 L48.7199334,6.94693821 C48.7199334,6.94693821 48.0222753,7.55162534 47.2027892,7.55162534 C46.5937104,7.55162534 46.017865,7.22688567 45.8739094,6.49901613 L49.4729679,6.49901613 C49.4729679,6.49901613 49.5172766,6.1070728 49.5172766,5.91670208 C49.5172766,4.31539216 48.5649102,3.12841401 46.8816292,3.12841401 C45.0433556,3.12841401 43.9138078,4.44978414 43.9138078,6.14067847 Z M45.9292704,5.32322452 C46.0510984,4.89770622 46.3279497,4.58415309 46.8816292,4.58415309 C47.2803161,4.58415309 47.5571674,4.96488685 47.5571674,5.32322452 L45.9292704,5.32322452 Z M50.7575619,9.02977587 L52.6733854,9.02977587 L52.6733854,6.8461519 C52.6733854,6.53259877 52.7065959,6.27504742 52.7730475,6.06228059 C53.0498988,5.20004211 53.7918656,5.05446359 54.2458983,5.05446359 C54.4784484,5.05446359 54.633487,5.08806926 54.633487,5.08806926 L54.633487,3.18439276 C54.633487,3.18439276 54.5227495,3.16199665 54.4120197,3.16199665 C53.5592925,3.16199665 52.8394992,3.81149134 52.5958585,4.59533962 L52.5737156,4.59533962 C52.5737156,4.59533962 52.5958585,4.48336678 52.5958585,4.30420563 L52.5958585,4.00186207 C52.5958585,3.47554979 52.3079396,3.26278296 51.7874476,3.26278296 L50.093122,3.26278296 L50.093122,4.88649665 L50.5139441,4.88649665 C50.6689674,4.88649665 50.7575619,4.97607339 50.7575619,5.13286147 L50.7575619,9.02977587 Z M54.954624,6.14067847 C54.954624,7.73080952 56.0952701,9.16414482 58.1328986,9.16414482 C59.7607803,9.16414482 60.6577856,8.04433194 60.6577856,8.04433194 L59.8936759,6.7453656 C59.8936759,6.7453656 59.1406414,7.49562356 58.321163,7.49562356 C57.6124143,7.49562356 56.8815227,7.10370326 56.8815227,6.11828237 C56.8815227,5.34562062 57.3687736,4.7297316 58.1771844,4.7297316 C58.4097499,4.7297316 58.6201571,4.79691224 58.6201571,4.97607339 L58.6201571,5.27843999 L60.2812646,5.27843999 L60.2812646,4.48336678 C60.2812646,3.44194411 58.9745276,3.12841401 58.1771844,3.12841401 C56.0177508,3.12841401 54.954624,4.61775108 54.954624,6.14067847 Z M61.034299,7.30528355 C61.034299,8.44746949 61.9091462,9.16414482 62.9722654,9.16414482 C64.1682649,9.16414482 64.5669288,8.3242794 64.5669288,8.3242794 L64.5890717,8.3242794 C64.5890717,8.3242794 64.5890717,8.38028118 64.5890717,8.42507339 C64.5890717,8.68262474 64.7883961,9.02977587 65.3421062,9.02977587 L67.0032137,9.02977587 L67.0032137,7.40604682 L66.5824145,7.40604682 C66.4273683,7.40604682 66.3387737,7.31647009 66.3387737,7.15970504 L66.3387737,5.47998957 C66.3387737,4.15862711 65.6854091,3.12841401 63.6920817,3.12841401 C63.038717,3.12841401 61.4218877,3.19560233 61.4218877,4.48336678 L61.4218877,5.1216519 L63.1937403,5.1216519 L63.1937403,4.86410055 C63.1937403,4.64014719 63.4484486,4.58415309 63.6920817,4.58415309 C64.1682649,4.58415309 64.4229503,4.78570267 64.4229503,5.33441873 L64.4229503,5.40159936 L64.345454,5.40159936 C63.4595162,5.40159936 61.034299,5.59197009 61.034299,7.30528355 Z M62.9611901,7.20448957 C62.9611901,6.7453656 63.6588482,6.57739098 64.2679347,6.57739098 L64.4451161,6.57739098 L64.4451161,6.66699075 C64.4451161,7.13730893 64.0021511,7.68599428 63.503802,7.68599428 C63.1272886,7.68599428 62.9611901,7.47325049 62.9611901,7.20448957 Z M67.4683293,6.14067847 C67.4683293,7.9323591 68.4871397,9.16414482 70.0375174,9.16414482 C71.211374,9.16414482 71.6875572,8.38028118 71.6875572,8.38028118 L71.7097001,8.38028118 C71.7097001,8.38028118 71.7097001,8.43628296 71.7097001,8.48106749 C71.7097001,8.74980538 71.9090321,9.02977587 72.4516593,9.02977587 L74.1570602,9.02977587 L74.1570602,7.40604682 L73.736261,7.40604682 C73.5812148,7.40604682 73.4926203,7.31647009 73.4926203,7.15970504 L73.4926203,1.84062652 C73.4926203,1.26952204 73.2489796,1.02318025 72.6842094,1.02318025 L70.9123569,1.02318025 L70.9123569,2.64688626 L71.333179,2.64688626 C71.4882023,2.64688626 71.5767968,2.73647068 71.5767968,2.89325876 L71.5767968,3.27396949 C71.5767968,3.41954801 71.5878721,3.53154388 71.5878721,3.53154388 L71.5657292,3.53154388 C71.5657292,3.53154388 71.2224492,3.12841401 70.0707279,3.12841401 C68.5535913,3.12841401 67.4683293,4.31539216 67.4683293,6.14067847 Z M70.5137006,7.56283491 C69.8492607,7.56283491 69.3952203,7.00291695 69.3952203,6.14067847 C69.3952203,5.25604388 69.9157046,4.76331424 70.5137006,4.76331424 C71.266735,4.76331424 71.6321808,5.44639157 71.6321808,6.14067847 C71.6321808,7.13730893 71.089546,7.56283491 70.5137006,7.56283491 Z M74.6554092,6.16307457 C74.6554092,7.96596478 76.0839513,9.16414482 77.8779467,9.16414482 C79.6719574,9.16414482 81.1005071,7.96596478 81.1005071,6.16307457 C81.1005071,4.34899016 79.6719574,3.12841401 77.8668714,3.12841401 C76.0839513,3.12841401 74.6554092,4.34899016 74.6554092,6.16307457 Z M76.5822774,6.16307457 C76.5822774,5.28962652 77.1802886,4.74091814 77.8779467,4.74091814 C78.5756201,4.74091814 79.1736084,5.28962652 79.1736084,6.16307457 C79.1736084,7.02531306 78.5756201,7.55162534 77.8779467,7.55162534 C77.1802886,7.55162534 76.5822774,7.02531306 76.5822774,6.16307457 L76.5822774,6.16307457 Z"/></g><path fill="#000001" d="M18.2303772,0 L18.3033077,0.000380016179 L18.3033077,0.000380016179 L18.3608299,0.00185936778 L18.3608299,0.00185936778 L18.3981174,0.00360181081 L18.3981174,0.00360181081 L18.424174,0.00522286011 L18.424174,0.00522286011 L18.4651073,0.00846745371 L18.4651073,0.00846745371 L18.5083197,0.0128363373 L18.5083197,0.0128363373 L18.5538798,0.0184967607 L18.5538798,0.0184967607 L18.5855915,0.0230704908 L18.5855915,0.0230704908 L18.6183975,0.0283421273 L18.6183975,0.0283421273 L18.6523183,0.0343612257 L18.6523183,0.0343612257 L18.687374,0.0411773414 L18.687374,0.0411773414 L18.7235852,0.0488400299 L18.7235852,0.0488400299 L18.7609722,0.0573988468 C18.7673024,0.0589027467 18.7736825,0.0604460501 18.7801129,0.0620297894 L18.8193017,0.0720257153 L18.8193017,0.0720257153 L18.8597171,0.0830416581 L18.8597171,0.0830416581 L18.9013795,0.0951271735 L18.9013795,0.0951271735 L18.9443092,0.108331817 L18.9443092,0.108331817 L18.9885267,0.122705144 L18.9885267,0.122705144 L19.0340522,0.138296709 L19.0340522,0.138296709 L19.0809062,0.155156069 C19.088827,0.158074365 19.0968041,0.161047551 19.1048377,0.164076659 L19.1537225,0.182930627 C19.1702462,0.189444477 19.1869997,0.196190274 19.2039866,0.203176278 L19.2556503,0.224863168 C19.2643787,0.228600506 19.2731662,0.232399961 19.2820134,0.236262564 L19.3358148,0.260204229 L19.3358148,0.260204229 L19.3910667,0.28571102 C19.4003974,0.290095333 19.4097894,0.294546923 19.419243,0.299066825 L19.476709,0.327014224 L19.476709,0.327014224 L19.5356763,0.35665064 L19.5356763,0.35665064 L19.5961655,0.388025627 C19.606375,0.393402425 19.6166487,0.398853729 19.6269871,0.404380571 L19.6897971,0.438456331 L19.6897971,0.438456331 L19.7541798,0.474394552 C19.7650425,0.480542214 19.7759715,0.486769543 19.7869673,0.493077571 L19.8537472,0.531902399 L19.8537472,0.531902399 L19.9221506,0.572713576 C19.9336876,0.579683721 19.9452931,0.586738695 19.9569675,0.593879531 L20.0278445,0.637763148 L20.0278445,0.637763148 L20.1003959,0.683757002 L20.1003959,0.683757002 L20.1746421,0.731910649 C20.1996756,0.748327337 20.2249949,0.765112249 20.2506035,0.782273645 L20.3283004,0.834895545 C20.3675861,0.86177948 20.4075303,0.889529088 20.4481443,0.918172243 L20.5302691,0.976658208 C20.6132938,1.03635209 20.6990286,1.09969449 20.7875652,1.16690842 C22.4693251,2.460055 23.3427583,3.93257004 23.3831001,5.55621463 C23.4191793,6.77581171 22.983772,8.64182123 20.7030021,10.6346754 L20.6333216,10.6951032 L18.8861037,12.1419667 C18.9116479,12.3751641 18.8899407,12.6400708 18.8034252,12.9390438 L18.8036796,12.9412706 L18.8036796,12.9412706 L18.8072014,12.9584563 L18.8072014,12.9584563 L18.8114797,12.975203 C18.8155861,12.989959 18.8209431,13.005754 18.8267834,13.0153687 L18.8582813,13.0429253 L18.8582813,13.0429253 L18.9186212,13.094499 L18.9186212,13.094499 L19.0222897,13.1817974 L19.0222897,13.1817974 L19.317252,13.4271936 L19.317252,13.4271936 L19.9530194,13.9513461 L19.9530194,13.9513461 L20.901731,14.7292448 L20.901731,14.7292448 L22.7464393,16.2357789 L22.7464393,16.2357789 L24.167204,17.3928483 L24.167204,17.3928483 L25.0012899,18.07103 L25.0012899,18.07103 C25.0907971,18.1470831 25.1739987,18.2221485 25.25871,18.300747 L25.3226486,18.3604288 L25.3226486,14.9121045 L25.3247001,13.8027876 L25.3247001,13.8027876 L25.3235971,12.6451451 L25.3235971,12.6451451 L25.3210755,12.1574379 L25.3210755,12.1574379 L25.3179415,11.9273986 L25.3179415,11.9273986 L25.3171836,11.9017979 L25.3171836,11.9017979 C25.3098001,11.6843399 25.3364679,11.4958579 25.3758619,11.3203821 C24.830638,10.4787367 24.6175391,9.40977156 24.5546513,8.44604156 L24.5476892,8.32858237 C24.5310594,8.01688103 24.5296538,7.71784735 24.5371389,7.44305936 L24.5403502,7.341173 L24.5403502,7.341173 L24.5443209,7.24169535 L24.5443209,7.24169535 L24.5489765,7.14476209 L24.5489765,7.14476209 L24.5542431,7.05050891 L24.5542431,7.05050891 L24.5600462,6.95907149 L24.5600462,6.95907149 L24.5663118,6.8705855 L24.5663118,6.8705855 L24.5729655,6.78518662 L24.5729655,6.78518662 L24.5799333,6.70301054 L24.5799333,6.70301054 L24.5908112,6.58608595 L24.5908112,6.58608595 L24.5982391,6.51256046 L24.5982391,6.51256046 L24.6131834,6.37673818 L24.6131834,6.37673818 L24.6241767,6.28523083 L24.6241767,6.28523083 L24.6380717,6.17790412 C24.6391788,6.1696858 24.6402713,6.16165265 24.6413474,6.15380749 C24.7122169,5.66729685 24.9569582,5.24956383 25.3226486,4.95755457 L25.315765,4.87001859 C25.3124581,4.82686236 25.3098001,4.78413179 25.3098001,4.73961291 C25.3098001,3.57316517 25.8689217,2.43739785 26.8391355,1.62898065 C27.7768343,0.851812049 29.010317,0.426355175 30.3188272,0.426355175 C31.6068913,0.426355175 32.824086,0.846376176 33.7469183,1.61413949 C34.3088679,2.07729355 34.7297607,2.65995252 34.9853299,3.29271698 L35.0041873,3.34026718 L35.0041873,2.14854416 C35.0041873,1.24959565 35.7831837,0.499664681 36.7640863,0.447969097 L36.7938718,0.446616854 L37.0071824,0.446785574 L37.0071824,0.446785574 L37.0934981,0.44777721 L37.0934981,0.44777721 L37.1897771,0.449858361 L37.1897771,0.449858361 L37.2592569,0.451963995 L37.2592569,0.451963995 L37.3328029,0.454723229 L37.3328029,0.454723229 L37.4102705,0.458203812 L37.4102705,0.458203812 L37.4915147,0.462473492 L37.4915147,0.462473492 L37.576391,0.467600018 L37.576391,0.467600018 L37.6647545,0.47365114 L37.6647545,0.47365114 L37.7564605,0.480694604 C37.7720153,0.481954974 37.7877034,0.483259515 37.8035217,0.484609637 L37.89997,0.493268646 C39.1245049,0.608625832 41.0476269,0.996260009 42.3971649,2.25161845 C43.3792334,3.16290254 43.8943964,4.3754537 43.8840776,5.76102265 L43.8834757,5.81117857 L43.8834757,6.14849446 C45.1107443,5.42911655 46.5668866,5.05427933 48.0149804,5.05427933 C48.9653901,5.05427933 49.8898735,5.20753563 50.7702392,5.50922658 C53.046395,6.28862942 54.7106898,7.60832579 55.8442275,9.53894365 C56.1823711,10.0856097 56.4564095,10.6720391 56.6714869,11.3049728 C57.0717789,10.3126265 57.57077,9.43587704 58.1740934,8.70889813 L58.1871919,8.69172839 C58.1939072,8.68344596 58.2010852,8.67590207 58.2096886,8.67037867 C59.6866133,6.98538089 61.5930354,5.91968873 63.8721798,5.49725691 C65.7772337,5.07514755 67.73732,5.04161098 69.6719003,5.39934209 C71.6525932,5.76690846 73.278992,6.41889075 74.5159448,7.34160716 C75.1108758,7.7702196 75.3210626,8.24165693 75.3733098,8.63728729 L75.3783939,8.68014054 L75.3783939,8.68014054 L75.3822903,8.72235812 C75.3828444,8.72933951 75.3833517,8.73629299 75.3838136,8.74321784 C75.7930197,9.03437563 76.1561599,9.3595281 76.4729,9.72302642 L76.5225259,9.78074019 L76.5225259,2.14854416 C76.5225259,1.24959565 77.3044215,0.499664681 78.2852634,0.447969097 L78.3150462,0.446616854 L78.5303799,0.446785574 L78.5303799,0.446785574 L78.6166077,0.44777721 L78.6166077,0.44777721 L78.7127949,0.449858361 L78.7127949,0.449858361 L78.782212,0.451963995 L78.782212,0.451963995 L78.8556947,0.454723229 L78.8556947,0.454723229 L78.9330984,0.458203812 L78.9330984,0.458203812 L79.0142789,0.462473492 L79.0142789,0.462473492 L79.0990917,0.467600018 L79.0990917,0.467600018 L79.1873926,0.47365114 L79.1873926,0.47365114 L79.2790371,0.480694604 C79.2945818,0.481954974 79.3102598,0.483259515 79.3260682,0.484609637 L79.4224575,0.493268646 C80.6462669,0.608625832 82.5691566,0.996260009 83.9223061,2.25161845 C84.9030681,3.16290254 85.4138574,4.3754537 85.4063178,5.75911169 L85.4058194,5.80919771 L85.4058194,6.14849446 C86.6295721,5.42911655 88.0832991,5.05427933 89.5372783,5.05427933 C90.4876728,5.05427933 91.4140364,5.20753563 92.2956633,5.50922658 C94.5712305,6.28862942 96.2356552,7.60832579 97.3665101,9.54031798 C97.3851425,9.56379884 97.398087,9.58817472 97.4101868,9.61287687 L97.4283084,9.6501037 C97.4314249,9.65632526 97.43464,9.66254944 97.4380293,9.66876735 L97.4443624,9.66119128 C97.4472417,9.6576622 97.4493797,9.65406899 97.4493797,9.64837515 C100.088314,5.50150272 104.688458,5.05427933 106.536354,5.05427933 C106.849802,5.05427933 107.151533,5.06576529 107.429721,5.0900962 C109.206881,5.2387132 110.716885,5.67248018 111.933296,6.37612036 L111.990999,6.40983096 C112.346783,6.61415222 112.588582,6.85479709 112.750056,7.11062862 C115.141085,8.03696127 116.858768,9.90605703 117.605176,12.4153804 C118.58408,15.7090511 117.707674,19.5138858 115.364898,22.1076955 C113.474688,24.1969979 110.242657,25.4969086 106.923798,25.4969086 C104.67366,25.4969086 102.467487,24.9005365 100.536545,23.7711034 C99.8951729,23.3977418 99.6016252,22.9680781 99.4766908,22.5798416 L99.4630134,22.5352344 C99.4500639,22.4908223 99.4392675,22.4470117 99.4303488,22.4039529 L99.4220459,22.3611502 L99.4220459,22.3611502 L99.4149337,22.318882 C99.4138441,22.3118837 99.4128016,22.304909 99.4118049,22.2979587 C98.7429013,21.7687059 98.1539245,21.1310426 97.654406,20.3929233 C97.3275976,21.0532436 96.9493874,21.6592744 96.5206084,22.1805193 C96.5140096,22.1888932 96.5056648,22.197738 96.4975101,22.2066056 L96.4856629,22.219868 C95.0108783,23.9048658 93.0982192,24.9696135 90.8215513,25.3874771 C89.8208766,25.6113582 88.8028373,25.7265897 87.7910445,25.7342705 L87.6800032,25.734682 C86.8000044,25.734682 85.9061176,25.65276 85.0208295,25.4917491 C83.4954763,25.2061431 82.1757379,24.7513648 81.0838032,24.1323202 C81.0838032,24.140021 81.0818312,24.1454646 81.0818312,24.1529965 L81.0709472,24.1910399 C81.0690538,24.1974067 81.0671201,24.2037862 81.0651454,24.2101774 L81.0528003,24.2486596 C81.050659,24.2550947 81.0484752,24.26154 81.0462482,24.2679946 L81.0323629,24.3068279 C81.0299604,24.3133167 81.0275133,24.3198132 81.0250209,24.3263166 L81.0095162,24.3654134 C80.9881021,24.4176358 80.963692,24.4701968 80.9359109,24.5226806 L80.9144371,24.5620226 C80.6232226,25.0796637 79.9941383,25.5796568 78.6660612,25.661789 C78.2461869,25.6885845 77.8221545,25.7017289 77.4070114,25.7017289 C74.4622347,25.7017289 72.2580567,25.040802 70.8618998,23.7325609 C70.799759,23.6761675 70.7395979,23.6119428 70.6824177,23.5513344 C69.2247926,25.0606107 67.0451881,25.8418255 64.8955457,25.8418255 C63.9161828,25.8418255 62.9611564,25.6872102 62.0529688,25.3834079 C59.7000085,24.5969771 58.092289,23.2318137 57.1383737,21.2023052 L57.1096672,21.1406015 C56.8657742,20.6265813 56.6714869,20.1030561 56.5037298,19.5720604 C56.1035754,20.5686908 55.6027575,21.4472523 54.9982647,22.1805193 C54.9911502,22.1855437 54.986012,22.1907375 54.9816903,22.1957702 L54.9700145,22.2100541 C54.9680901,22.2122439 54.9660799,22.2143108 54.9638388,22.2162133 C53.4836428,23.9048658 51.5778933,24.9696135 49.2982751,25.3874771 C48.2638416,25.6193539 47.2087938,25.734682 46.1577206,25.734682 C45.2781804,25.734682 44.3829942,25.65276 43.4983558,25.4917491 C41.5187941,25.1219408 39.8947112,24.4701121 38.6572616,23.5531847 C38.4763013,23.423401 38.2996253,23.2848297 38.1204913,23.1255212 L38.0606797,23.071634 C37.635669,22.6968198 37.4504467,22.3088382 37.3912945,21.9751539 C36.6399951,21.3458134 36.0740479,20.5762458 35.7703072,19.6883021 C35.5100956,18.9400173 35.3205854,18.1677318 35.1915573,17.3875842 C35.1475543,17.5885963 35.0740861,17.7717806 34.9756545,17.9375747 L34.9926531,18.0198459 L34.9926531,18.0198459 L35.0275409,18.1860163 C35.0624452,18.3533295 35.0962443,18.5241858 35.1185477,18.6996181 L35.1249184,18.7213414 C35.1259188,18.7249217 35.1268006,18.7285171 35.1274324,18.7321804 L35.1284459,18.7434276 L35.2309514,19.5459482 C35.2435237,19.6239392 35.2487115,19.705151 35.2470299,19.7810887 L35.245619,19.8185787 L35.245619,21.0243598 C35.245619,23.6340165 33.0193364,25.7607941 30.2797465,25.7607941 C28.5902744,25.7607941 27.0864756,24.944369 26.1912894,23.6965674 C25.9798732,24.0201477 25.7209839,24.3173088 25.4113043,24.575889 C24.5456063,25.2897158 23.3831001,25.6812906 22.1280325,25.6812906 C20.6869018,25.6812906 19.2310346,25.164399 18.1377776,24.2534987 L14.0589542,20.853275 L14.0589542,20.853275 L13.1590579,20.1064385 L13.1590579,20.1064385 L12.8535538,19.8546023 L12.8535538,19.8546023 L12.738914,19.7611551 L12.738914,19.7611551 L12.7028913,19.7323111 L12.7028913,19.7323111 C12.3409997,19.4374304 12.0600058,19.1131053 11.8441488,18.7606412 C11.5402781,18.6764773 11.2592842,18.5386072 11.0127237,18.3360979 L10.0327111,17.5231278 L9.93811652,17.4434938 L9.93811652,20.9982246 C9.93811652,23.6119428 7.71164276,25.734682 4.97423892,25.734682 C2.26480692,25.734682 0.0552460117,23.6541853 0.0113257368,21.0764872 L0.0106594197,20.9982246 L0.00177780008,2.37813302 C-0.0194784686,1.89162238 0.150105434,1.42642529 0.498307727,1.06384181 C0.871916649,0.663775374 1.40933107,0.436343975 2.01067481,0.415475751 C2.14975394,0.411537046 2.28092216,0.409571533 2.41308403,0.409571533 C7.4454733,0.409571533 9.80388517,3.72515372 9.93001662,7.04570187 L9.93315596,7.14632265 L9.93315596,7.70280096 L16.264352,2.49389869 C16.2811675,2.47319937 16.2993052,2.46231227 16.3106557,2.44691063 L16.3033101,2.42627466 L16.3033101,2.42627466 L16.2889573,2.38381867 C16.192656,2.0883713 16.1359559,1.68448303 16.3155933,1.22467608 C16.5019927,0.752330966 16.8874794,0.37482187 17.4075586,0.159636542 C17.6615256,0.0556102093 17.941824,0 18.2303772,0 Z M87.7629187,11.9953594 C87.0177802,11.9953594 86.3951795,12.5216527 86.200619,12.8832408 L86.1921944,12.899319 C86.0151155,13.2467383 85.7493901,13.5224689 85.430015,13.7192963 L85.3955926,13.7400827 L85.3955926,14.470363 C85.3955926,14.505581 85.3955926,14.5389641 85.3936206,14.5734373 C85.3759644,14.8708364 85.3723643,15.1241726 85.386711,15.3800272 L85.3934287,15.4999884 L85.3934287,15.4999884 L85.4010265,15.6167829 L85.4010265,15.6167829 L85.4094729,15.7304516 C85.4271937,15.9546904 85.4498187,16.1604198 85.4762197,16.3491106 L85.4897297,16.442043 L85.4897297,16.442043 L85.5038377,16.5321765 C85.5062371,16.5469678 85.5086601,16.5616441 85.5111061,16.5762064 L85.5260524,16.6622182 L85.5260524,16.6622182 L85.5415183,16.7455333 C85.5441375,16.7591966 85.5467771,16.7727494 85.5494363,16.7861923 L85.565623,16.8655389 C85.5683584,16.878546 85.5711122,16.8914449 85.5738838,16.9042367 L85.5907207,16.9797067 L85.5907207,16.9797067 L85.6079519,17.0526435 C85.6108549,17.0645908 85.613773,17.0764343 85.6167056,17.0881747 L85.6344696,17.1573882 L85.6344696,17.1573882 L85.6525495,17.2241706 C85.6555875,17.2351007 85.6586372,17.2459312 85.6616982,17.256663 L85.6801934,17.3198753 C85.6832966,17.3302155 85.6864097,17.3404586 85.6895321,17.3506056 L85.708372,17.4103398 C85.7115287,17.4201054 85.7146934,17.4297766 85.7178654,17.439354 L85.7369795,17.4957021 L85.7369795,17.4957021 L85.7562372,17.5498439 L85.7562372,17.5498439 L85.7756073,17.6018201 L85.7756073,17.6018201 L85.7950583,17.6516717 C85.7983051,17.6598055 85.801554,17.6678525 85.8048043,17.6758135 L85.8243181,17.7225548 C85.8308248,17.7377959 85.837332,17.7526999 85.8438344,17.7672736 L85.863322,17.8100107 L85.863322,17.8100107 L85.8827496,17.8508072 L85.8827496,17.8508072 L85.9020857,17.8897037 L85.9020857,17.8897037 L85.9212992,17.9267412 C85.9244895,17.9327615 85.9276733,17.938706 85.9308501,17.9445756 L85.9498207,17.9789012 L85.9498207,17.9789012 L85.9685903,18.0114699 L85.9685903,18.0114699 L85.9871275,18.0423227 L85.9871275,18.0423227 L86.0054009,18.0715003 L86.0054009,18.0715003 L86.0233792,18.0990436 L86.0233792,18.0990436 L86.0410312,18.1249935 L86.0410312,18.1249935 L86.0583254,18.1493908 L86.0583254,18.1493908 L86.0752305,18.1722765 L86.0752305,18.1722765 L86.0917153,18.1936914 L86.0917153,18.1936914 L86.1155855,18.2231453 L86.1155855,18.2231453 L86.1383336,18.2495196 L86.1383336,18.2495196 L86.1598537,18.2729525 L86.1598537,18.2729525 L86.18004,18.2935816 C86.182205,18.2957231 86.1843432,18.2978152 86.1864542,18.2998588 L86.2485385,18.3677486 L86.2485385,18.3677486 L86.2642809,18.3795035 L86.2642809,18.3795035 L86.286071,18.3941677 L86.286071,18.3941677 L86.3181279,18.4139278 L86.3181279,18.4139278 L86.3517667,18.4331063 L86.3517667,18.4331063 L86.3819592,18.4493071 L86.3819592,18.4493071 L86.4166206,18.4669587 L86.4166206,18.4669587 L86.4559443,18.485965 L86.4559443,18.485965 L86.5001236,18.5062301 L86.5001236,18.5062301 L86.5323693,18.5203922 L86.5323693,18.5203922 L86.5850704,18.5425423 L86.5850704,18.5425423 L86.6231764,18.5578721 L86.6231764,18.5578721 L86.6637266,18.5736193 L86.6637266,18.5736193 L86.7067784,18.5897554 L86.7067784,18.5897554 L86.752389,18.606252 L86.752389,18.606252 L86.8006156,18.6230807 L86.8006156,18.6230807 L86.8515156,18.640213 L86.8515156,18.640213 L86.9051461,18.6576206 L86.9051461,18.6576206 L86.9615644,18.6752749 C86.971203,18.6782363 86.9809601,18.6812068 86.9908369,18.6841858 C87.2162624,18.753582 87.4320906,18.7884556 87.6494387,18.7899873 L87.6929319,18.7898495 C87.7654652,18.78888 87.8382498,18.7842145 87.9116973,18.7758969 L87.9803061,18.7701024 C88.0402877,18.765193 88.1052815,18.7606412 88.1602375,18.7606412 C88.4052607,18.7606412 88.6440968,18.8047532 88.8664801,18.8794833 L88.9107343,18.8948335 L88.9415049,18.8516632 C89.2266035,18.4469301 89.4525903,17.991351 89.5771692,17.4707039 L89.6224764,17.2716944 L89.6224764,17.2716944 L89.6545913,17.1269203 L89.6545913,17.1269203 L89.6850768,16.9861163 L89.6850768,16.9861163 L89.7139054,16.8493974 L89.7139054,16.8493974 L89.7497189,16.6736584 L89.7497189,16.6736584 L89.7745749,16.5469177 L89.7745749,16.5469177 L89.790176,16.4648989 L89.790176,16.4648989 L89.812103,16.3456684 L89.812103,16.3456684 L89.832236,16.2310971 L89.832236,16.2310971 L89.8505476,16.1212998 L89.8505476,16.1212998 L89.86173,16.0508106 L89.86173,16.0508106 L89.876945,15.9492253 L89.876945,15.9492253 L89.8860376,15.8843171 L89.8860376,15.8843171 L89.89428,15.8217008 C89.8955824,15.8114576 89.8968491,15.8013114 89.8980799,15.7912627 L89.908182,15.7034801 L89.908182,15.7034801 L89.9138252,15.6479438 L89.9138252,15.6479438 L89.9185859,15.5948355 C89.9193053,15.5861884 89.9199877,15.5776438 89.9206327,15.5692025 L89.9240542,15.5198001 L89.9240542,15.5198001 L89.9265727,15.4729109 L89.9265727,15.4729109 L89.9281802,15.4285687 C89.9285633,15.4142163 89.9287931,15.4002941 89.9288685,15.3868078 L89.9288685,15.2796939 C89.9288685,15.2484411 89.9286455,15.2175577 89.9283162,15.1870399 L89.9268982,15.0965784 L89.9268982,15.0965784 L89.9246376,15.0082851 L89.9246376,15.0082851 L89.9215608,14.9221353 C89.9209814,14.9079542 89.9203691,14.8938615 89.9197245,14.8798565 L89.9154728,14.7968761 C89.913929,14.7695643 89.9122602,14.7425996 89.9104708,14.7159778 L89.9047447,14.6371371 L89.9047447,14.6371371 L89.898321,14.5603297 L89.898321,14.5603297 L89.891226,14.4855308 L89.891226,14.4855308 L89.883486,14.412716 L89.883486,14.412716 L89.8751275,14.3418607 C89.8736843,14.3302134 89.8722164,14.3186468 89.8707244,14.3071602 L89.8614873,14.2391982 L89.8614873,14.2391982 L89.8516975,14.1731344 L89.8516975,14.1731344 L89.8413812,14.1089443 C89.8396194,14.0984007 89.8378368,14.0879342 89.8360339,14.0775442 L89.8249775,14.0161186 C89.8230956,14.0060327 89.8211946,13.9960223 89.8192749,13.9860869 L89.8075375,13.9273706 L89.8075375,13.9273706 L89.795379,13.8704297 L89.795379,13.8704297 L89.7828259,13.8152399 L89.7828259,13.8152399 L89.7699045,13.7617765 L89.7699045,13.7617765 L89.7566411,13.710015 C89.7544034,13.7015286 89.7521527,13.693112 89.7498893,13.6847649 L89.7361623,13.6355103 L89.7361623,13.6355103 L89.7221592,13.5878962 L89.7221592,13.5878962 L89.7079062,13.5418983 L89.7079062,13.5418983 L89.6934299,13.4974918 L89.6934299,13.4974918 L89.6787564,13.4546524 L89.6787564,13.4546524 L89.6639122,13.4133553 L89.6639122,13.4133553 L89.6489236,13.3735762 L89.6489236,13.3735762 L89.633817,13.3352905 L89.633817,13.3352905 L89.6186186,13.2984736 L89.6186186,13.2984736 L89.6033549,13.263101 C89.6008069,13.2573245 89.5982574,13.2516072 89.5957067,13.2459486 L89.5803944,13.2126965 L89.5803944,13.2126965 L89.5650825,13.1808273 L89.5650825,13.1808273 L89.5497974,13.1503165 L89.5497974,13.1503165 L89.5345656,13.1211397 L89.5345656,13.1211397 L89.5118752,13.0798218 L89.5118752,13.0798218 L89.4968916,13.0538724 L89.4968916,13.0538724 L89.4820534,13.029171 L89.4820534,13.029171 L89.4673869,13.0056931 L89.4673869,13.0056931 L89.4457668,12.9727166 L89.4457668,12.9727166 L89.4246814,12.9423549 L89.4246814,12.9423549 L89.4109654,12.9235257 L89.4109654,12.9235257 L89.3909685,12.8973381 L89.3909685,12.8973381 C89.0712608,12.4800197 88.714261,12.2096464 88.3082135,12.0831779 C88.1218218,12.0283124 87.9413843,11.9953594 87.7629187,11.9953594 Z M46.2391457,11.9953594 C45.4886225,11.9953594 44.872695,12.5216527 44.6764529,12.8832408 L44.6679474,12.899319 C44.4919533,13.2467383 44.2239354,13.5224689 43.906513,13.7192963 L43.8723163,13.7400827 L43.8723163,14.5734373 C43.8534906,14.8636116 43.8509989,15.1318735 43.8594066,15.3871445 L43.8628164,15.4473121 L43.8628164,15.4473121 L43.8702945,15.5652747 C43.8716127,15.5846732 43.8729663,15.6039413 43.8743549,15.6230798 L43.8830988,15.7363631 L43.8830988,15.7363631 L43.8926473,15.8465775 L43.8926473,15.8465775 L43.9029689,15.9537636 L43.9029689,15.9537636 L43.9140322,16.0579618 C43.9216479,16.1264404 43.929737,16.1929541 43.9382576,16.257557 L43.9513569,16.3530349 C43.9535923,16.3687113 43.9558533,16.3842699 43.9581394,16.3997117 L43.9721504,16.4909662 L43.9721504,16.4909662 L43.9867299,16.5794557 C43.9892055,16.5939758 43.9917034,16.6083824 43.994223,16.6226763 L44.0095963,16.7070944 C44.0122002,16.7209409 44.0148245,16.7346765 44.0174686,16.748302 L44.0335647,16.8287398 C44.0390056,16.8551164 44.0445203,16.8810591 44.0501035,16.9065748 L44.0670533,16.9818474 C44.0699108,16.9941815 44.0727841,17.0064106 44.0756726,17.0185354 L44.0931801,17.0900405 C44.0990731,17.1134631 44.1050215,17.1364755 44.1110201,17.1590845 L44.129161,17.225708 C44.1322078,17.2366124 44.1352658,17.2474177 44.1383344,17.2581247 L44.1568677,17.3211934 C44.159976,17.3315104 44.1630935,17.3417309 44.1662197,17.3518555 L44.1850745,17.4114606 C44.1882325,17.4212054 44.1913977,17.4308562 44.1945696,17.4404136 L44.2136752,17.4966463 L44.2136752,17.4966463 L44.2329086,17.5506812 C44.2361231,17.5595061 44.2393416,17.5682412 44.2425634,17.5768872 L44.2619296,17.6277017 L44.2619296,17.6277017 L44.2813448,17.6764198 L44.2813448,17.6764198 L44.3007778,17.7230821 L44.3007778,17.7230821 L44.3201969,17.7677291 L44.3201969,17.7677291 L44.3395707,17.8104013 L44.3395707,17.8104013 L44.3588677,17.8511392 L44.3588677,17.8511392 L44.3780564,17.8899834 L44.3780564,17.8899834 L44.3971055,17.9269744 L44.3971055,17.9269744 L44.4159833,17.9621527 L44.4159833,17.9621527 L44.4346584,17.9955589 L44.4346584,17.9955589 L44.4530994,18.0272333 L44.4530994,18.0272333 L44.4712747,18.0572167 L44.4712747,18.0572167 L44.4891529,18.0855494 L44.4891529,18.0855494 L44.5067025,18.1122721 L44.5067025,18.1122721 L44.523892,18.1374252 L44.523892,18.1374252 L44.54069,18.1610492 L44.54069,18.1610492 L44.557065,18.1831848 L44.557065,18.1831848 L44.5729854,18.2038723 L44.5729854,18.2038723 L44.5884199,18.2231524 L44.5884199,18.2231524 L44.6033369,18.2410655 L44.6033369,18.2410655 L44.617705,18.2576521 L44.617705,18.2576521 L44.6446684,18.2870083 L44.6446684,18.2870083 L44.6572008,18.2998588 L44.6572008,18.2998588 C44.6673665,18.3074659 44.6762322,18.3157328 44.6846966,18.3244406 L44.7097841,18.3516685 L44.7097841,18.3516685 L44.723265,18.3659939 L44.723265,18.3659939 L44.7396797,18.3782376 L44.7396797,18.3782376 L44.7617022,18.3930216 L44.7617022,18.3930216 L44.7798146,18.4043813 L44.7798146,18.4043813 L44.8100712,18.422228 L44.8100712,18.422228 L44.8279425,18.4322432 L44.8279425,18.4322432 L44.8583351,18.448549 L44.8583351,18.448549 L44.8931985,18.466307 L44.8931985,18.466307 L44.9327212,18.4854191 L44.9327212,18.4854191 L44.9770918,18.505787 L44.9770918,18.505787 L45.0094586,18.5200147 L45.0094586,18.5200147 L45.0441199,18.5347278 L45.0441199,18.5347278 L45.0811313,18.5498972 L45.0811313,18.5498972 L45.1411775,18.5734431 L45.1411775,18.5734431 L45.2068262,18.597852 L45.2068262,18.597852 L45.2537975,18.6145554 L45.2537975,18.6145554 L45.3033986,18.6315696 L45.3033986,18.6315696 L45.3556853,18.6488655 L45.3556853,18.6488655 L45.4107135,18.6664139 L45.4107135,18.6664139 L45.468539,18.6841858 L45.468539,18.6841858 C45.7033497,18.7570518 45.9320638,18.7918566 46.1623268,18.7899672 L46.2084023,18.7891004 C46.2698699,18.7872935 46.3314839,18.7828837 46.3933893,18.7758969 L46.4832578,18.7682863 C46.5369068,18.7641262 46.5937092,18.7606412 46.6384134,18.7606412 C46.8809788,18.7606412 47.116289,18.8047532 47.3389591,18.8794833 L47.383323,18.8948335 L47.4145867,18.8516632 C47.7039613,18.4469301 47.9252644,17.991351 48.0528763,17.4707039 L48.0876654,17.3216718 L48.0876654,17.3216718 L48.1207269,17.1763367 L48.1207269,17.1763367 L48.152042,17.0348179 L48.152042,17.0348179 L48.1815917,16.897235 L48.1815917,16.897235 L48.2093572,16.7637073 L48.2093572,16.7637073 L48.2268669,16.6770007 L48.2268669,16.6770007 L48.2516165,16.5504973 L48.2516165,16.5504973 L48.2670982,16.4685842 L48.2670982,16.4685842 L48.2817589,16.3886504 L48.2817589,16.3886504 L48.295593,16.3107313 L48.295593,16.3107313 L48.3085948,16.2348623 L48.3085948,16.2348623 L48.3265249,16.1249802 L48.3265249,16.1249802 L48.3374217,16.0543912 L48.3374217,16.0543912 L48.3474667,15.9859763 L48.3474667,15.9859763 L48.3566542,15.9197707 L48.3566542,15.9197707 L48.3649787,15.8558099 L48.3649787,15.8558099 L48.3758351,15.764155 L48.3758351,15.764155 L48.3819776,15.7059609 L48.3819776,15.7059609 L48.3872374,15.6501354 L48.3872374,15.6501354 L48.391609,15.596714 L48.391609,15.596714 L48.3950867,15.5457319 L48.3950867,15.5457319 L48.3976651,15.4972247 C48.3980195,15.4893484 48.3983363,15.4815766 48.3986152,15.4739102 L48.3998339,15.4291816 L48.3998339,15.4291816 L48.4001391,15.3870162 L48.4001391,15.3870162 L48.3999474,15.3669059 L48.3999474,15.3096449 C48.3999474,15.2780905 48.3998014,15.2469112 48.3995137,15.2161026 L48.3982299,15.1247853 L48.3982299,15.1247853 L48.3961217,15.0356674 L48.3961217,15.0356674 L48.3932151,14.9487235 L48.3932151,14.9487235 L48.3895358,14.8639282 L48.3895358,14.8639282 L48.3851098,14.7812561 C48.3843113,14.7676529 48.3834828,14.7541371 48.3826248,14.7407082 L48.3771271,14.6611731 L48.3771271,14.6611731 L48.3709473,14.5836975 L48.3709473,14.5836975 L48.3641111,14.5082559 C48.3629185,14.4958504 48.3616996,14.4835286 48.360455,14.47129 L48.3526828,14.3988519 L48.3526828,14.3988519 L48.344319,14.3283842 L48.344319,14.3283842 L48.3353893,14.2598616 L48.3353893,14.2598616 L48.3259196,14.1932585 L48.3259196,14.1932585 L48.3159358,14.1285496 L48.3159358,14.1285496 L48.3054637,14.0657094 L48.3054637,14.0657094 L48.2945291,14.0047124 L48.2945291,14.0047124 L48.283158,13.9455333 C48.2812278,13.9358201 48.2792806,13.9261817 48.2773167,13.9166174 L48.2653391,13.8601172 L48.2653391,13.8601172 L48.2529895,13.8053712 L48.2529895,13.8053712 L48.2402938,13.752354 C48.2381504,13.7436604 48.2359937,13.7350379 48.2338242,13.7264857 L48.2206578,13.6760139 L48.2206578,13.6760139 L48.2072098,13.6272072 L48.2072098,13.6272072 L48.1935061,13.5800402 L48.1935061,13.5800402 L48.1795726,13.5344874 L48.1795726,13.5344874 L48.1654352,13.4905234 L48.1654352,13.4905234 L48.1511196,13.4481228 L48.1511196,13.4481228 L48.1366517,13.4072601 L48.1366517,13.4072601 L48.1220574,13.3679099 L48.1220574,13.3679099 L48.0999854,13.3116647 L48.0999854,13.3116647 L48.0851881,13.2759843 L48.0851881,13.2759843 L48.0703548,13.2417273 L48.0703548,13.2417273 L48.0555114,13.2088683 L48.0555114,13.2088683 L48.0406837,13.1773818 L48.0406837,13.1773818 L48.0185283,13.1326698 L48.0185283,13.1326698 L48.003853,13.1045033 L48.003853,13.1045033 L47.9820472,13.064652 L47.9820472,13.064652 L47.9676859,13.0396464 L47.9676859,13.0396464 L47.9534954,13.0158606 L47.9534954,13.0158606 L47.9325864,12.9824136 L47.9325864,12.9824136 L47.9122071,12.9515681 L47.9122071,12.9515681 L47.8989583,12.9324073 L47.8989583,12.9324073 L47.8796557,12.9057068 C47.8775517,12.9028735 47.8754618,12.9000841 47.8733866,12.8973381 C47.5429781,12.4800197 47.1951045,12.2096464 46.7898596,12.0872471 C46.6024895,12.0283124 46.4200571,11.9953594 46.2391457,11.9953594 Z M67.408402,12.1501052 C67.3024044,12.1501052 67.1709156,12.171514 67.0089791,12.2092806 L66.9376991,12.2264531 L66.9376991,12.2264531 C66.740469,12.278424 66.5413816,12.3065631 66.3377158,12.3065631 C66.0955962,12.3065631 65.8638715,12.264842 65.6401265,12.1970932 C65.4218367,12.5432962 65.2415586,12.9301146 65.1349802,13.362799 L65.0980916,13.5193877 L65.0980916,13.5193877 L65.0534454,13.7141749 L65.0534454,13.7141749 L65.0218941,13.855762 L65.0218941,13.855762 L64.9920332,13.9933626 L64.9920332,13.9933626 L64.9730799,14.0828253 L64.9730799,14.0828253 L64.9549,14.1704319 L64.9549,14.1704319 L64.9290999,14.2982877 L64.9290999,14.2982877 L64.9050899,14.4217774 L64.9050899,14.4217774 L64.8829,14.5407871 L64.8829,14.5407871 L64.8691327,14.6175818 L64.8691327,14.6175818 L64.8500429,14.7288717 L64.8500429,14.7288717 L64.8383699,14.8004145 L64.8383699,14.8004145 L64.8224632,14.9036683 L64.8224632,14.9036683 L64.81294,14.9697483 L64.81294,14.9697483 L64.8002995,15.0646497 L64.8002995,15.0646497 L64.7896586,15.1543879 L64.7896586,15.1543879 L64.7836904,15.2112887 C64.7827713,15.2205748 64.7818902,15.2297618 64.7810473,15.238849 L64.7764487,15.2921684 L64.7764487,15.2921684 L64.7727743,15.343058 L64.7727743,15.343058 L64.770033,15.3914841 L64.770033,15.3914841 L64.7682335,15.4374129 L64.7682335,15.4374129 L64.7673849,15.4808108 C64.7673136,15.487831 64.7673136,15.4947443 64.7673136,15.5015501 L64.7674959,15.577139 C64.7674959,15.6244403 64.7678264,15.6709017 64.768473,15.7165373 L64.7701833,15.8067116 C64.770891,15.8364054 64.771735,15.8657364 64.7727108,15.8947088 L64.77603,15.9805538 C64.7772654,16.008813 64.7786286,16.0367176 64.7801151,16.0642719 L64.7849406,16.145888 C64.7858051,16.1593169 64.7866994,16.1726593 64.7876229,16.1859157 L64.7935109,16.2644258 L64.7935109,16.2644258 L64.8000751,16.3408966 C64.801224,16.3534731 64.8024001,16.3659658 64.8036028,16.378375 L64.8111333,16.4518338 C64.8124402,16.4639115 64.8137725,16.4759068 64.8151298,16.4878203 L64.8235691,16.5583234 L64.8235691,16.5583234 L64.8325821,16.6268874 C64.8341306,16.6381545 64.835702,16.6493419 64.8372957,16.66045 L64.8471213,16.7261522 L64.8471213,16.7261522 L64.8574566,16.7899779 C64.8592202,16.8004606 64.861004,16.8108661 64.8628074,16.8211949 L64.8738592,16.8822528 C64.875739,16.8922773 64.8776373,16.9022262 64.8795537,16.9121 L64.8912643,16.9704465 L64.8912643,16.9704465 L64.903382,17.0270167 L64.903382,17.0270167 L64.9158813,17.0818357 L64.9158813,17.0818357 L64.9287365,17.1349284 C64.9309072,17.1436348 64.9330917,17.1522702 64.9352895,17.1608353 L64.9486305,17.2113857 L64.9486305,17.2113857 L64.9622633,17.2602726 L64.9622633,17.2602726 L64.9761623,17.3075209 L64.9761623,17.3075209 L64.9903019,17.3531558 L64.9903019,17.3531558 L65.0046564,17.3972022 L65.0046564,17.3972022 L65.0192002,17.4396853 L65.0192002,17.4396853 L65.0339078,17.4806301 L65.0339078,17.4806301 L65.0487534,17.5200615 L65.0487534,17.5200615 L65.0637114,17.5580048 L65.0637114,17.5580048 L65.0787562,17.5944849 L65.0787562,17.5944849 L65.0938622,17.6295269 L65.0938622,17.6295269 L65.1090037,17.6631559 L65.1090037,17.6631559 L65.1241551,17.6953968 L65.1241551,17.6953968 L65.1392908,17.7262748 L65.1392908,17.7262748 L65.1619088,17.770091 L65.1619088,17.770091 L65.1768931,17.7976712 L65.1768931,17.7976712 L65.191772,17.823976 L65.191772,17.823976 L65.2065198,17.8490307 L65.2065198,17.8490307 L65.2211109,17.8728602 L65.2211109,17.8728602 L65.2355197,17.8954895 L65.2355197,17.8954895 L65.2497206,17.9169438 L65.2497206,17.9169438 L65.2705759,17.9469768 L65.2705759,17.9469768 L65.2908192,17.9745067 L65.2908192,17.9745067 L65.303932,17.9915112 C65.6204983,18.4133365 65.9753045,18.6764773 66.3826972,18.803583 C66.5438664,18.8524828 66.6989726,18.8804218 66.8525551,18.8847387 L66.8944069,18.8853284 L66.9292716,18.8849126 C67.4112314,18.8734207 67.8155305,18.6257865 68.0871315,18.3972947 L68.1259243,18.3640231 L68.1259243,18.3640231 L68.1627842,18.3312026 C68.1687643,18.32578 68.1746623,18.3203836 68.1804773,18.3150171 L68.214366,18.2832067 L68.214366,18.2832067 L68.246226,18.2522918 L68.246226,18.2522918 L68.276019,18.2224502 L68.276019,18.2224502 L68.3037065,18.1938599 L68.3037065,18.1938599 L68.3412065,18.1537092 L68.3412065,18.1537092 L68.3737537,18.1173736 L68.3737537,18.1173736 L68.4012188,18.0854534 L68.4012188,18.0854534 L68.4166416,18.0669224 L68.4166416,18.0669224 C68.6928202,17.7378985 68.9916004,17.4933534 69.3060418,17.3265381 L69.3091355,15.8888024 L69.3091355,15.8888024 L69.3087212,15.6109887 L69.3087212,15.6109887 L69.3070201,15.4916929 L69.3070201,15.4916929 L69.3003507,15.3726013 C69.2991632,15.3530145 69.2979382,15.3335581 69.2966764,15.3142312 L69.2886693,15.1998171 C69.2788248,15.0681318 69.2672431,14.9427117 69.2541576,14.8232724 L69.2425787,14.7223539 L69.2425787,14.7223539 L69.230296,14.624325 C69.2239842,14.5760263 69.2174206,14.5287963 69.2106238,14.4826126 L69.1967246,14.3916336 C69.1919915,14.3617679 69.1871602,14.3323606 69.182236,14.303405 L69.1671908,14.2178869 C69.1646386,14.2038576 69.1620647,14.1899395 69.1594696,14.1761319 L69.1436506,14.0946051 C69.1249117,14.0010213 69.1052031,13.9127686 69.0847585,13.8295625 L69.0670597,13.7594723 C69.0640816,13.7479943 69.0610899,13.7366177 69.0580853,13.7253417 L69.039907,13.6588846 C69.0368532,13.6480072 69.0337877,13.6372287 69.0307113,13.6265482 L69.0121271,13.5636348 C69.0090097,13.5533431 69.0058827,13.5431477 69.0027468,13.5330479 L68.9838303,13.4735886 C68.9806615,13.4638675 68.9774853,13.4542404 68.9743022,13.4447063 L68.9551269,13.3886116 C68.9519191,13.3794464 68.9487058,13.3703726 68.9454878,13.3613893 L68.9261272,13.3085697 C68.9196581,13.291321 68.9131752,13.2744279 68.906684,13.2578838 L68.887191,13.2092917 L68.887191,13.2092917 L68.8676806,13.1627538 L68.8676806,13.1627538 L68.8481858,13.1182301 L68.8481858,13.1182301 L68.8287391,13.075681 L68.8287391,13.075681 L68.8093732,13.0350665 C68.8061541,13.0284565 68.8029398,13.0219254 68.7997308,13.0154724 L68.7805476,12.9776855 L68.7805476,12.9776855 L68.7615269,12.9417339 L68.7615269,12.9417339 L68.7427015,12.9075777 L68.7427015,12.9075777 L68.7241041,12.8751772 C68.7210254,12.8699212 68.7179575,12.8647367 68.7149011,12.8596229 L68.696707,12.8297813 L68.696707,12.8297813 L68.6788226,12.801596 L68.6788226,12.801596 L68.6612806,12.7750271 L68.6612806,12.7750271 L68.6441137,12.7500349 L68.6441137,12.7500349 L68.6191382,12.7154158 L68.6191382,12.7154158 L68.5951906,12.6841203 L68.5951906,12.6841203 L68.579851,12.6650368 L68.579851,12.6650368 L68.5650501,12.6473311 L68.5650501,12.6473311 L68.54393,12.6232686 L68.54393,12.6232686 L68.5242056,12.6020823 L68.5242056,12.6020823 L68.5118859,12.5894896 L68.5118859,12.5894896 C68.496794,12.5768481 68.4860856,12.566222 68.4760957,12.5554674 L68.4441841,12.5203159 L68.4441841,12.5203159 L68.4302865,12.5098625 L68.4302865,12.5098625 L68.4204841,12.503035 L68.4204841,12.503035 L68.3999755,12.4895847 L68.3999755,12.4895847 L68.3794946,12.4769633 L68.3794946,12.4769633 L68.3546587,12.4624695 L68.3546587,12.4624695 L68.3252525,12.4462162 L68.3252525,12.4462162 L68.2910604,12.4283164 L68.2910604,12.4283164 L68.2655006,12.4155242 L68.2655006,12.4155242 L68.2376542,12.4020839 L68.2376542,12.4020839 L68.2074575,12.3880289 L68.2074575,12.3880289 L68.1576158,12.365867 L68.1576158,12.365867 L68.1212639,12.3504215 L68.1212639,12.3504215 L68.0823382,12.3344785 L68.0823382,12.3344785 L68.040775,12.3180714 L68.040775,12.3180714 L67.9965104,12.3012335 L67.9965104,12.3012335 L67.9494806,12.2839984 L67.9494806,12.2839984 L67.8996217,12.2663995 L67.8996217,12.2663995 L67.84687,12.2484703 L67.84687,12.2484703 L67.7911617,12.2302442 L67.7911617,12.2302442 L67.7324328,12.2117547 C67.7223895,12.208653 67.7122176,12.2055418 67.7019158,12.2024216 L67.6559427,12.1892388 L67.6559427,12.1892388 L67.6149198,12.1783804 C67.6084569,12.1767529 67.6021714,12.1752136 67.5960491,12.1737582 L67.5611577,12.1659991 C67.5335212,12.1603151 67.5092441,12.1565145 67.4865296,12.1540595 L67.4599071,12.151725 L67.4599071,12.151725 L67.4340946,12.1504757 C67.4255487,12.1502172 67.4170229,12.1501052 67.408402,12.1501052 Z M107.363148,12.5753931 C106.789246,12.5753931 106.242546,12.7963689 105.893982,13.0199566 L105.850573,13.048497 C105.815319,13.0722645 105.782389,13.0959564 105.75199,13.1193098 L105.716738,13.1471546 C105.671391,13.1840194 105.632733,13.2197485 105.601606,13.2532649 C105.274316,13.6202017 104.920182,13.8703133 104.531944,14.0074232 L104.530017,14.0835939 C104.529508,14.1085451 104.529131,14.1330512 104.528884,14.1570945 L104.528527,14.2278181 C104.528527,14.239368 104.528527,14.2507977 104.528635,14.2621051 L104.529412,14.328463 L104.529412,14.328463 L104.530925,14.3917769 C104.531237,14.4020696 104.531579,14.4122311 104.531951,14.422259 L104.534535,14.4808067 L104.534535,14.4808067 L104.537812,14.5360435 C104.540826,14.5806648 104.544546,14.621726 104.548927,14.6589489 L104.5545,14.7017562 L104.564398,14.7537041 L104.570515,14.7978205 L104.570515,14.7978205 L104.58314,14.884276 C104.585286,14.8984891 104.587454,14.9126044 104.589642,14.9266228 L104.603011,15.0095734 L104.603011,15.0095734 L104.616847,15.090226 L104.616847,15.090226 L104.631127,15.1686112 C104.633542,15.1814882 104.635975,15.1942719 104.638425,15.2069631 L104.653325,15.2820049 L104.653325,15.2820049 L104.66861,15.3548562 L104.66861,15.3548562 L104.684256,15.4255478 L104.684256,15.4255478 L104.700239,15.4941103 L104.700239,15.4941103 L104.716536,15.5605745 L104.716536,15.5605745 L104.733123,15.6249713 L104.733123,15.6249713 L104.749978,15.6873312 C104.752808,15.6975565 104.755648,15.7076982 104.758497,15.717757 L104.775708,15.7771195 C104.778594,15.786849 104.781489,15.7964969 104.784393,15.8060638 L104.801906,15.8624979 L104.801906,15.8624979 L104.819593,15.9170182 C104.822554,15.9259472 104.825521,15.9347977 104.828494,15.9435703 L104.846395,15.9952776 L104.846395,15.9952776 L104.864411,16.045148 C104.867422,16.0533084 104.870436,16.0613935 104.873454,16.069404 L104.891597,16.1165766 L104.891597,16.1165766 L104.909795,16.1619892 L104.909795,16.1619892 L104.928024,16.2056724 L104.928024,16.2056724 L104.946262,16.2476571 L104.946262,16.2476571 L104.964484,16.287974 L104.964484,16.287974 L104.982667,16.3266538 L104.982667,16.3266538 L105.000788,16.3637273 L105.000788,16.3637273 L105.018823,16.3992252 L105.018823,16.3992252 L105.036748,16.4331782 L105.036748,16.4331782 L105.06338,16.4812785 L105.06338,16.4812785 L105.080929,16.511504 L105.080929,16.511504 L105.098286,16.5402923 L105.098286,16.5402923 L105.115428,16.567674 L105.115428,16.567674 L105.132331,16.5936801 L105.132331,16.5936801 L105.157187,16.6301769 L105.157187,16.6301769 L105.17339,16.6528782 L105.17339,16.6528782 L105.197085,16.6845619 L105.197085,16.6845619 L105.212441,16.7041505 L105.212441,16.7041505 L105.234756,16.7313094 L105.234756,16.7313094 L105.256136,16.7558917 L105.256136,16.7558917 L105.283052,16.7848395 L105.283052,16.7848395 C105.37052,16.8761099 105.457274,16.9589585 105.541759,17.033661 L105.592164,17.0775072 C105.600516,17.0846527 105.608841,17.0917173 105.617139,17.0987013 L105.666587,17.1396398 L105.666587,17.1396398 L105.715303,17.1786564 C105.723358,17.1849997 105.731378,17.1912635 105.739364,17.197448 L105.786842,17.2336065 L105.786842,17.2336065 L105.833401,17.2678762 C105.84108,17.2734311 105.848717,17.2789079 105.856312,17.2843068 L105.901353,17.3157681 L105.901353,17.3157681 L105.945287,17.3453736 L105.945287,17.3453736 L105.988041,17.3731367 C105.995064,17.377611 106.002035,17.3820092 106.008952,17.3863314 L106.049795,17.4113556 C106.05649,17.4153751 106.063128,17.4193192 106.069708,17.4231883 L106.108471,17.4455033 L106.108471,17.4455033 L106.145754,17.4660289 C106.151841,17.4693014 106.157862,17.4725 106.163818,17.4756247 L106.198741,17.4934909 L106.198741,17.4934909 L106.231997,17.5096006 L106.231997,17.5096006 L106.263512,17.5239671 C106.268616,17.526217 106.273643,17.5283948 106.278593,17.5305008 L106.307356,17.5422775 L106.307356,17.5422775 L106.334189,17.552344 L106.334189,17.552344 L106.35902,17.5607138 C106.362987,17.5619681 106.366868,17.5631522 106.37066,17.5642665 L106.392345,17.5701159 L106.392345,17.5701159 C106.574071,17.6161442 106.757287,17.6419407 106.941935,17.6459205 L106.992328,17.6464638 L107.029321,17.6461749 C107.640226,17.6366371 108.159988,17.3925794 108.478052,17.1570827 L108.515983,17.1283057 C108.534437,17.1139551 108.552118,17.0996738 108.569001,17.0855176 L108.601695,17.0573884 L108.601695,17.0573884 L108.632214,17.029692 C108.695952,16.9702233 108.744063,16.9144998 108.774484,16.8670609 C109.061417,16.4009886 109.525937,16.0565324 110.052497,15.8854252 L110.050528,15.8487476 L110.050528,15.8487476 L110.045946,15.7752334 C110.044274,15.7506967 110.042455,15.7261303 110.040485,15.7015408 L110.034116,15.6277097 C110.031839,15.6030808 110.029405,15.5784354 110.026812,15.5537804 L110.018545,15.4797929 C110.017085,15.4674591 110.015584,15.4551244 110.014041,15.4427899 L110.004278,15.3687904 L110.004278,15.3687904 L109.993481,15.2948329 C109.83498,14.2599108 109.364792,13.2491601 108.240219,12.7578557 C107.957582,12.6348039 107.671329,12.5753931 107.363148,12.5753931 Z M35.0041873,6.03865604 C34.7507172,6.69731033 34.3167866,7.31118009 33.7208926,7.80012458 C33.5794975,7.91499963 33.4265609,8.02744849 33.2698256,8.1279584 C34.1690401,9.02103325 34.705336,10.0799814 34.9894653,11.0723616 L35.0041873,11.1245295 L35.0041873,6.03865604 Z"/><path fill="#F60" d="M27.7157789,11.5531419 C27.8380476,11.6563058 27.9567359,11.7457793 28.077202,11.8263511 L28.2599042,11.9411312 L28.5398969,12.113866 C30.1580485,13.0750865 32.8561271,14.6845195 33.4925769,18.7904387 C33.4925769,18.7904387 33.5170746,18.9776087 33.5451769,19.1905397 L33.5737069,19.4060797 C33.5784042,19.4414415 33.5830082,19.4760244 33.5874221,19.509081 L33.5999971,19.6029251 L33.5999971,20.8729308 C33.5999971,22.5440395 32.1980999,23.90667 30.4952366,23.90667 C28.8466965,23.90667 27.4857415,22.6396322 27.3906332,21.0507497 L27.3853245,20.8729308 L27.3855795,14.7055645 C27.385862,14.6401425 27.3863527,14.5225152 27.3869144,14.3703192 L27.3877931,14.1183031 C27.3880924,14.0271253 27.3883923,13.9295099 27.3886757,13.8276614 L27.3895573,13.4651707 C27.3896849,13.403088 27.3898008,13.3404459 27.3899017,13.2776555 L27.3898929,12.3761053 C27.3891207,12.0521746 27.3872344,11.796952 27.3835436,11.6992886 C27.3706569,11.32763 27.6082899,11.4641333 27.7157789,11.5531419 Z M8.28808452,6.98408536 L8.28965887,7.03515598 L8.28965887,8.70885206 L8.29347292,13.9165412 L8.29156589,14.0044999 L8.29156589,14.0044999 L8.28965887,14.093829 L8.28965887,20.8470106 C8.28965887,22.5169215 6.89036046,23.8822777 5.1805646,23.8822777 C3.53396293,23.8822777 2.17646726,22.6127055 2.08160354,21.0247159 L2.0763086,20.8470106 L2.0763086,8.74994358 L2.06889451,2.17159288 C2.04614778,1.98845463 2.2198209,1.97164795 2.28572986,1.9695596 C7.78150904,1.79105524 8.25221831,6.00407212 8.28808452,6.98408536 Z M17.2171923,12.3420806 C17.0609844,12.8901133 17.2147006,13.5868417 17.6919921,14.0376583 C18.16709,14.4880603 23.9797049,19.1991349 23.9797049,19.1991349 C25.4004278,20.3732988 25.5760729,22.1588219 24.3727051,23.1629843 C23.1603258,24.1625476 21.0108592,24.0165545 19.5881415,22.840594 C19.5881415,22.840594 14.5792825,18.6493209 14.1345136,18.2944152 C13.2920591,17.6238527 13.2160609,16.5465671 13.5296998,15.8307517 C14.0171723,14.7078293 15.5863527,13.3309872 16.9189167,12.1744821 C17.1545777,11.9731629 17.3174048,12.0003653 17.2171923,12.3420806 Z M19.8138584,2.32751337 C23.8498378,5.43294049 20.4206565,8.56802146 19.6104559,9.2688198 L19.5702865,9.3034429 L15.6243786,12.5719305 C14.7028456,13.330895 14.0349126,13.8875499 13.5428311,14.5418125 C13.5273151,14.5622047 12.6408576,15.5920954 12.7944515,16.6731431 C12.8414431,16.9692446 12.6614642,17.081348 12.4661832,16.9217498 C12.0698657,16.5882037 11.4314286,16.0654309 10.2778652,15.1048016 C6.928822,12.3249744 9.16116588,10.6665264 9.16116588,10.6665264 L9.23291534,10.5985281 L9.23291534,10.5985281 L9.3119394,10.5305068 L17.7097554,3.60803 C17.7097554,3.60803 18.3201642,3.12062874 18.4669708,2.68522145 C18.5615654,2.39184554 18.516263,2.24434758 18.4295564,2.05485213 C18.3181463,1.79669423 18.1550211,1.65474731 18.3802871,1.56214552 C18.6454821,1.45589263 19.7576566,2.28775011 19.8138584,2.32751337 Z M26.9820669,6.19193537 C27.1699185,6.61423668 27.5135424,7.20142613 28.4828695,7.49943942 C28.9672103,7.64165297 29.1966409,7.70129541 29.2343527,7.71096418 L29.2399779,7.71239819 C33.663036,8.53994557 33.6180248,12.6250176 33.6076924,12.9441428 L33.6069067,12.9639199 L33.6069067,12.9639199 L33.6065983,13.0899031 L33.6063823,13.1820218 L33.6063823,13.1820218 L33.605834,13.428242 L33.6055196,13.5779424 L33.6055196,13.5779424 L33.6048551,13.9195205 L33.6045229,14.1069971 L33.6045229,14.1069971 L33.6036334,14.7097699 L33.6036215,16.225707 L33.6036215,16.225707 L33.6045423,16.4885464 C33.6051248,16.6010162 33.6058996,16.6828608 33.6069067,16.7241773 C33.6138393,17.0867455 33.46289,17.0442796 33.3773757,16.7847474 C32.3951356,13.8633169 30.2815386,12.5158228 28.857946,11.6667126 L28.7027011,11.5743633 L28.4205606,11.4031256 C28.2520162,11.297771 28.0809418,11.1879249 27.9157987,11.064113 C27.9039438,11.0514216 27.8843156,11.0390373 27.869518,11.0265072 C27.8449292,11.0093934 27.8200347,10.9888706 27.8024167,10.9740525 C27.6406138,10.838816 27.4967269,10.6905349 27.3774136,10.5567725 C27.3558363,10.5377085 27.3409929,10.5156656 27.3271507,10.4943598 C27.2818407,10.4405538 27.2422785,10.3921761 27.2098017,10.3441208 C26.4762885,9.2672882 26.5570179,7.19779454 26.6913735,6.22038157 C26.7237814,6.01060141 26.8991514,6.00878945 26.9820669,6.19193537 Z M32.7116823,2.72180611 C33.9185125,3.72191461 33.9082856,5.3721397 32.6871546,6.38400289 C31.4654733,7.40084896 29.4824645,7.40222328 28.2766738,6.40395745 C27.0668703,5.40284317 27.0718079,3.75319391 28.2974103,2.74178371 C29.5180674,1.72931397 31.5048674,1.72158244 32.7116823,2.72180611 Z"/><path fill="#F4D223" d="M64.2517735,7.00803804 C65.9170466,6.63548111 67.5973084,6.60331119 69.2873002,6.91840755 C70.9768181,7.23354999 72.3270001,7.76204276 73.3382283,8.52168298 C73.7429535,8.80657493 73.3905932,8.81954272 72.8106739,8.59181188 C69.2893181,7.23535427 64.2453377,8.87169024 63.2838909,12.9050696 C62.9339667,14.3761576 62.891959,15.0249464 62.8896435,15.2921791 L62.8899188,15.3643991 C62.8904033,15.3946815 62.8911735,15.416608 62.8911735,15.4319137 C62.8911735,16.9349633 63.1800478,18.0679896 63.755855,18.8224704 C64.340582,19.5721064 65.0149431,20.033695 65.7624743,20.2653875 C67.5658252,20.8245454 69.0653056,19.9198718 69.8713852,18.9495915 C70.215139,18.5386533 70.5493462,18.4021499 70.5285868,19.2149819 C70.3876656,23.1340544 66.0709615,24.7716341 62.6612909,23.6340165 C60.7535771,22.9919846 59.5415188,21.9390299 58.7962806,20.33038 C58.1405542,18.9061736 57.7442291,17.3363503 57.7442291,15.4899117 C57.7442291,14.1475428 57.9167404,12.9999594 58.2677555,12.0355833 C58.625726,11.0743398 59.074286,10.257738 59.6322765,9.58595474 C60.8422328,8.20563457 62.3804957,7.34489325 64.2517735,7.00803804 Z M42.8314241,11.3675237 C42.8774221,7.44553368 47.0776103,5.83879557 50.3276181,6.95556036 C52.2300274,7.60875575 53.5182597,8.66686993 54.4312398,10.2154104 C55.2860154,11.5943639 55.6154532,13.2532265 55.6154532,15.0946592 C55.6154532,16.4370511 55.4370106,17.5887268 55.0909102,18.548596 C54.7354543,19.5137092 54.2804586,20.3303339 53.7257166,20.9981785 C52.5154392,22.3785064 50.9742948,23.2411979 49.1077636,23.5717266 C47.4375528,23.9465408 45.7653701,23.9782961 44.0763031,23.670271 C42.3794246,23.3560652 41.0334694,22.8202862 40.0185112,22.0711109 C39.8601478,21.9512376 39.7034354,21.8291454 39.5615053,21.6985616 C39.338731,21.5044902 39.406612,21.4168252 39.6526527,21.5605764 C43.1416006,23.6164497 49.0279895,22.0724391 50.0721531,17.679985 C50.4232299,16.232831 50.4658449,15.5792412 50.4695879,15.3053673 L50.4694871,15.156166 C50.4694871,13.651911 50.1806128,12.5206736 49.5973762,11.7684731 C49.0181295,11.0138618 48.3437685,10.550922 47.5953888,10.3243582 C45.5444991,9.68641858 43.7730822,10.8903954 43.1938355,12.028443 C43.0735438,12.2649495 42.8398319,12.1928704 42.8398319,11.9294149 C42.8398319,11.6093126 42.8314241,11.3675237 42.8314241,11.3675237 Z M84.1255592,11.3675237 C84.1668946,7.44553368 88.3702472,5.83879557 91.6221812,6.9535795 C93.5261345,7.60875575 94.8148254,8.66686993 95.7188932,10.2154104 C96.5806243,11.5943639 96.9080901,13.2532265 96.9080901,15.0946592 C96.9080901,16.4370511 96.7323991,17.5887268 96.3815369,18.548596 C96.0295435,19.5137092 95.5729045,20.3303339 95.0140656,20.9981785 C93.8069297,22.3785064 92.2668859,23.2411979 90.3975648,23.5717266 C88.7331325,23.9465408 87.0508528,23.9782961 85.3659515,23.670271 C83.6700437,23.3560652 82.320649,22.8202862 81.3155431,22.0711109 C81.1527466,21.9512376 80.9932137,21.8291454 80.853118,21.6985616 C80.6332941,21.5044902 80.695282,21.4168252 80.9477203,21.5605764 C84.4340617,23.6164497 90.3189984,22.0724391 91.3638117,17.679985 C91.7086675,16.232831 91.7552809,15.5792412 91.7604445,15.3053673 L91.7606565,15.156166 C91.7606565,13.651911 91.4720344,12.5206736 90.8939572,11.7684731 C90.3087716,11.0138618 89.6255289,10.550922 88.8830882,10.3243582 C86.8379386,9.68641858 85.0667204,10.8903954 84.4871221,12.028443 C84.3631922,12.2649495 84.1324688,12.1928704 84.1324688,11.9294149 C84.1374294,11.6093126 84.1255592,11.3675237 84.1255592,11.3675237 Z M66.145905,10.0417312 C68.7134727,7.94398327 74.2104309,8.43761121 75.6085981,11.5680522 C76.4816873,13.5289282 76.3499993,16.120281 76.291,18.5059613 C76.2156896,21.2025382 77.8359814,22.5951198 78.931906,23.2277464 C79.4834683,23.5467815 79.3434108,23.7610915 78.5172521,23.8158495 C76.021731,23.9699811 71.0451577,23.7819444 71.1250999,19.7579703 L71.1255979,19.7015527 C71.1286538,19.3524731 71.1448277,17.4625654 71.1475724,16.2605292 L71.1472726,15.6136062 C71.1464123,15.4423163 71.1447092,15.3223093 71.1419154,15.2743809 C71.0394099,13.3689845 70.6095991,12.0356678 69.8522308,11.2840969 C69.5481615,10.9496372 69.0230835,10.6642692 68.2663649,10.4359241 C67.777723,10.287643 67.2442602,10.2104045 66.3982056,10.4374213 C66.1300679,10.5137692 65.8915864,10.224332 66.145905,10.0417312 Z M103.710876,11.9655465 C104.180883,8.31333856 108.274645,7.27973188 111.658572,8.39961385 C116.870646,10.1240678 117.363576,17.0406941 113.907602,20.874236 C111.6014,23.4337414 106.173469,24.9136578 101.509686,22.1882048 C101.113323,21.9489726 101.11612,21.7265011 101.642827,21.9553068 C104.792133,23.3496696 110.461663,22.4699335 111.548187,18.7281027 C112.045229,17.0027351 112.581145,12.6287307 109.018186,11.072167 C107.014425,10.1895516 104.937128,11.1418275 104.147283,12.0211491 C103.81011,12.3983664 103.664075,12.3177036 103.710876,11.9655465 Z M99.0368278,10.355507 C101.389463,6.6516275 105.726797,6.50833697 107.242443,6.63543505 C108.757761,6.76421456 109.996724,7.11831409 110.972295,7.69790253 C111.363675,7.91769453 111.056013,7.95878604 110.523697,7.81144164 C107.28131,6.91853808 103.084393,8.84307513 102.735197,12.5262476 C102.576513,14.2203436 102.684934,14.7131807 102.6998,14.8158404 C102.882355,16.1580634 103.27456,17.1469393 103.872136,17.7640337 C104.471668,18.3839997 105.21112,18.8963384 105.879741,19.0631997 C107.957627,19.5852278 109.776357,18.5042875 110.360893,17.5612173 C110.614516,17.1650512 111.186203,17.2681485 111.161637,17.6109003 C110.928942,21.0831025 106.912027,22.7610214 103.497396,22.1587758 C98.2544963,21.2351458 96.3515901,14.569322 99.0368278,10.355507 Z M37.2331257,1.99721882 C38.1201138,2.00747835 42.2859573,2.23641725 42.229553,5.63393687 L42.229553,5.63393687 L42.229553,6.69731033 L42.2283836,6.69731033 L42.2283836,14.321199 C42.2077846,14.6416007 42.1980775,14.9653576 42.2208242,15.3135836 C42.3198367,17.2210453 42.7447175,18.5486421 43.5029495,19.3014491 C43.8061704,19.6390721 44.3374931,19.9221291 45.0922626,20.1500442 C45.6609537,20.3244604 46.2367609,20.3809536 46.8195159,20.314487 C47.0131536,20.2955766 47.2028167,20.4980859 47.038178,20.6324779 C44.7231097,22.5689846 38.8969966,22.3332151 37.7497007,19.0233059 C37.477619,18.2362176 37.2920222,17.4344417 37.1821102,16.6152756 C37.1575826,16.4745725 37.1368078,16.3118188 37.1181503,16.1306153 C37.1130598,16.0902455 37.1092916,16.0447546 37.1082903,16.0007532 C37.018985,14.9740873 37.0234258,13.5393777 37.0684071,13.2798838 L37.0684071,13.2798838 L37.0684071,1.99787527 L37.0684071,1.99787527 Z M78.5233005,1.99721882 C79.4105894,2.00747835 83.5780833,2.23641725 83.5261187,5.63393687 L83.5261187,5.63393687 L83.5261187,6.69731033 L83.5143937,6.69731033 L83.5143937,14.321199 C83.4993974,14.6416007 83.4894992,14.9653576 83.5102739,15.3135836 C83.6089883,17.2210453 84.0369876,18.5486421 84.7940501,19.3014491 C85.0977908,19.6390721 85.628265,19.9221291 86.3929327,20.1500442 C86.9543933,20.3244604 87.5244602,20.3809536 88.1129172,20.314487 C88.3062186,20.2955766 88.492595,20.4980859 88.3329399,20.6324779 C86.0097849,22.5689846 80.1914144,22.3332151 79.0393033,19.0233059 C78.7725031,18.2362176 78.5816935,17.4344417 78.4732108,16.6152756 C78.4432258,16.4745725 78.4303773,16.3118188 78.4145784,16.1306153 C78.4068204,16.0902455 78.3999107,16.0447546 78.3999107,16.0007532 C78.3110792,14.9740873 78.3150462,13.5393777 78.3585294,13.2798838 L78.3585294,13.2798838 L78.3585294,1.99787527 L78.3585294,1.99787527 Z"/></g></svg>